<svg width="22" height="22" viewBox="0 0 22 22" fill="none" xmlns="http://www.w3.org/2000/svg">
<path d="M18.3333 2.75H3.66667C3.42355 2.75 3.19039 2.84658 3.01849 3.01849C2.84658 3.19039 2.75 3.42355 2.75 3.66667V18.3333C2.75 18.5764 2.84658 18.8096 3.01849 18.9815C3.19039 19.1534 3.42355 19.25 3.66667 19.25H11.5637V12.87H9.42058V10.3721H11.5637V8.53875C11.5637 6.4075 12.8654 5.24608 14.7721 5.24608C15.4128 5.24425 16.0545 5.27725 16.6925 5.34417V7.5625H15.3771C14.3431 7.5625 14.1414 8.05567 14.1414 8.77708V10.3675H16.6137L16.2928 12.8654H14.1405V19.25H18.3333C18.5764 19.25 18.8096 19.1534 18.9815 18.9815C19.1534 18.8096 19.25 18.5764 19.25 18.3333V3.66667C19.25 3.42355 19.1534 3.19039 18.9815 3.01849C18.8096 2.84658 18.5764 2.75 18.3333 2.75V2.75Z" fill="#DA1F39"/>
</svg>
