<svg width="22" height="22" viewBox="0 0 22 22" fill="none" xmlns="http://www.w3.org/2000/svg">
<path d="M19.2012 7.613C19.192 6.91874 19.062 6.23138 18.8172 5.58167C18.6048 5.03364 18.2805 4.53593 17.8649 4.12034C17.4493 3.70476 16.9516 3.38043 16.4036 3.16808C15.7622 2.92733 15.0846 2.79715 14.3997 2.78308C13.5179 2.74367 13.2383 2.73267 10.9998 2.73267C8.76132 2.73267 8.4744 2.73267 7.59899 2.78308C6.91438 2.79725 6.23714 2.92743 5.59607 3.16808C5.04796 3.38028 4.55017 3.70456 4.13457 4.12016C3.71896 4.53577 3.39469 5.03355 3.18249 5.58167C2.94125 6.22254 2.81135 6.89993 2.7984 7.58458C2.75899 8.46733 2.74707 8.74692 2.74707 10.9854C2.74707 13.2239 2.74707 13.5099 2.7984 14.3862C2.81215 15.0719 2.9414 15.7484 3.18249 16.391C3.39504 16.9389 3.71956 17.4365 4.1353 17.852C4.55105 18.2674 5.04888 18.5915 5.59699 18.8037C6.2363 19.0541 6.91366 19.1936 7.5999 19.2162C8.48265 19.2556 8.76224 19.2675 11.0007 19.2675C13.2392 19.2675 13.5262 19.2675 14.4016 19.2162C15.0865 19.2027 15.7641 19.0728 16.4054 18.8321C16.9533 18.6195 17.4509 18.2951 17.8664 17.8795C18.282 17.464 18.6064 16.9664 18.819 16.4185C19.0601 15.7768 19.1893 15.1003 19.2031 14.4137C19.2425 13.5319 19.2544 13.2523 19.2544 11.0129C19.2526 8.77442 19.2526 8.49025 19.2012 7.613V7.613ZM10.9943 15.2186C8.65315 15.2186 6.75657 13.322 6.75657 10.9808C6.75657 8.63967 8.65315 6.74308 10.9943 6.74308C12.1182 6.74308 13.1961 7.18956 13.9909 7.98429C14.7856 8.77902 15.2321 9.85691 15.2321 10.9808C15.2321 12.1048 14.7856 13.1826 13.9909 13.9774C13.1961 14.7721 12.1182 15.2186 10.9943 15.2186V15.2186ZM15.4007 7.5745C15.2709 7.57462 15.1424 7.54914 15.0224 7.49953C14.9025 7.44991 14.7935 7.37712 14.7017 7.28534C14.6099 7.19356 14.5372 7.08457 14.4875 6.96463C14.4379 6.84469 14.4124 6.71613 14.4126 6.58633C14.4126 6.45663 14.4381 6.32819 14.4878 6.20835C14.5374 6.08852 14.6101 5.97963 14.7019 5.88792C14.7936 5.7962 14.9025 5.72345 15.0223 5.67381C15.1421 5.62417 15.2706 5.59862 15.4003 5.59862C15.53 5.59862 15.6584 5.62417 15.7783 5.67381C15.8981 5.72345 16.007 5.7962 16.0987 5.88792C16.1904 5.97963 16.2632 6.08852 16.3128 6.20835C16.3624 6.32819 16.388 6.45663 16.388 6.58633C16.388 7.13267 15.9462 7.5745 15.4007 7.5745Z" fill="#DA1F39"/>
<path d="M10.9944 13.7334C12.5148 13.7334 13.7472 12.501 13.7472 10.9807C13.7472 9.46035 12.5148 8.22791 10.9944 8.22791C9.47415 8.22791 8.2417 9.46035 8.2417 10.9807C8.2417 12.501 9.47415 13.7334 10.9944 13.7334Z" fill="#DA1F39"/>
</svg>
