<svg width="22" height="22" viewBox="0 0 22 22" fill="none" xmlns="http://www.w3.org/2000/svg">
<path d="M2.35693 7.95459L10.7279 12.3082C10.8119 12.3519 10.9052 12.3747 10.9998 12.3747C11.0944 12.3747 11.1877 12.3519 11.2716 12.3082L19.6426 7.95538V15.5179C19.6427 16.1701 19.3931 16.7977 18.9452 17.2718C18.4972 17.7459 17.8849 18.0306 17.2336 18.0675L17.0891 18.0714H4.91051C4.25825 18.0715 3.63071 17.8219 3.15661 17.374C2.68251 16.926 2.39779 16.3137 2.36086 15.6624L2.35693 15.5179V7.95459ZM4.91051 3.92859H17.0891C17.7413 3.92855 18.3689 4.1781 18.843 4.62605C19.3171 5.07399 19.6018 5.68638 19.6387 6.33759L19.6426 6.48216V6.62673L10.9998 11.121L2.35693 6.62673V6.48216C2.35689 5.82991 2.60644 5.20237 3.05439 4.72826C3.50234 4.25416 4.11473 3.96944 4.76593 3.93252L4.91051 3.92859H17.0891H4.91051Z" fill="#DA1F39"/>
</svg>
