<svg width="22" height="22" viewBox="0 0 22 22" fill="none" xmlns="http://www.w3.org/2000/svg">
<path d="M10.9999 2.35938C6.22806 2.35938 2.35986 6.22758 2.35986 10.9994C2.35986 15.7712 6.22806 19.6394 10.9999 19.6394C15.7717 19.6394 19.6399 15.7712 19.6399 10.9994C19.6399 6.22758 15.7717 2.35938 10.9999 2.35938ZM11.5912 13.0469C11.0368 13.0046 10.8046 12.7301 10.3708 12.4673C10.1323 13.7192 9.84066 14.9198 8.97666 15.5471C8.70936 13.6535 9.36726 12.2333 9.67326 10.724C9.15216 9.84648 9.73536 8.08157 10.8352 8.51537C12.1879 9.05177 9.66336 11.7779 11.3581 12.119C13.1275 12.4736 13.8502 9.04817 12.7531 7.93577C11.1673 6.32748 8.13876 7.89888 8.51136 10.2011C8.60136 10.7636 9.18366 10.9346 8.74356 11.7113C7.72926 11.4863 7.42596 10.6862 7.46556 9.61968C7.52766 7.87368 9.03426 6.65057 10.5445 6.48227C12.4552 6.26987 14.248 7.18337 14.4964 8.98157C14.7745 11.0102 13.6333 13.2053 11.5912 13.0469Z" fill="#DA1F39"/>
</svg>
