<svg width="21" height="22" viewBox="0 0 21 22" fill="none" xmlns="http://www.w3.org/2000/svg">
<path d="M19.601 6.91055C19.4907 6.51614 19.2804 6.15691 18.9905 5.86762C18.7006 5.57834 18.3409 5.36881 17.9463 5.25933C16.4649 4.8633 10.5095 4.8633 10.5095 4.8633C10.5095 4.8633 4.56551 4.8538 3.06867 5.25933C2.67466 5.36929 2.31567 5.57904 2.02642 5.8683C1.73716 6.15755 1.52741 6.51654 1.41745 6.91055C1.13613 8.42712 0.997578 9.96672 1.00361 11.5091C1.00086 13.0442 1.13939 14.5762 1.41745 16.0858C1.52777 16.48 1.73758 16.8392 2.02673 17.129C2.31589 17.4188 2.67468 17.6294 3.06867 17.7406C4.55008 18.1366 10.5095 18.1366 10.5095 18.1366C10.5095 18.1366 16.45 18.1366 17.9463 17.7406C18.3409 17.6299 18.7004 17.4195 18.9902 17.1297C19.28 16.8399 19.4904 16.4804 19.601 16.0858C19.8736 14.5771 20.0066 13.0428 19.9971 11.5091C20.0066 9.96539 19.8765 8.42877 19.601 6.91055V6.91055ZM8.60717 14.3514V8.65439L13.5644 11.5091L8.60717 14.3514Z" fill="#DA1F39"/>
</svg>
